# xmcd CD database file
#
# Track frame offsets:
#	150
#	13975
#	26885
#	39335
#	50277
#	63907
#	74092
#	83742
#	100510
#	112585
#	125302
#	139347
#	150240
#	162205
#	173322
#	187865
#	196277
#	207530
#
# Disc length: 2920 seconds
#
# Revision: 0
# Processed by: cddbd v1.5.1PL0 Copyright (c) Steve Scherf et al.
# Submitted via: CDex 1.51
#
DISCID=e20b6612
DTITLE=Wild Canyon - 18 Guitar Tracks
DYEAR=1990
DGENRE=Country
TTITLE0=Enchanted Canyon
TTITLE1=Raunchy
TTITLE2=Teen Scene
TTITLE3=Trambone
TTITLE4=Strollin'
TTITLE5=Mexican Lady
TTITLE6=Corn Pickin'
TTITLE7=My Memories
TTITLE8=We Were Born With The Musik Of Rock
TTITLE9=Dobro
TTITLE10=Buffalo Skip
TTITLE11=Sunny River
TTITLE12=Skip Along
TTITLE13=Poor Boy Jamboree
TTITLE14=Flamingo Shuffle
TTITLE15=Snail Pace
TTITLE16=Take Me Back Home
TTITLE17=Blue Steel Blues
EXTD=YEAR: 1990
EXTT0=
EXTT1=
EXTT2=
EXTT3=
EXTT4=
EXTT5=
EXTT6=
EXTT7=
EXTT8=
EXTT9=
EXTT10=
EXTT11=
EXTT12=
EXTT13=
EXTT14=
EXTT15=
EXTT16=
EXTT17=
PLAYORDER=
